<svg clip-rule="evenodd" fill-rule="evenodd" height="2048" image-rendering="optimizeQuality" shape-rendering="geometricPrecision" text-rendering="geometricPrecision" viewBox="0 0 2048 2048" width="2048" xmlns="http://www.w3.org/2000/svg"><rect fill="#03a9f4" height="2048" rx="256.001" width="2048"/><path d="m512 415.998h960.002c44.0327 0 84.0414 17.9917 113.026 46.9748 28.9831 28.9843 46.9748 68.993 46.9748 113.026v544.002c0 35.2323-14.3917 67.2414-37.5744 90.4253-23.1839 23.1827-55.193 37.5744-90.4253 37.5744h-384.003v-32.0008c0-34.1008-9.06261-67.0973-25.8331-95.9989h361.835 32.0008v-32.0008-416-32.0008h-32.0008-928.001-32.0008v32.0008 351.999h-79.9997c-22.0654 0-43.6689 3.79607-64.0004 11.0173v-459.018c0-44.0327 17.9917-84.0414 46.9748-113.026 28.9843-28.9831 68.993-46.9748 113.026-46.9748zm32.0008 96.0013c17.6728 0 31.9996 14.3268 31.9996 31.9996s-14.3268 31.9996-31.9996 31.9996-31.9996-14.3268-31.9996-31.9996 14.3268-31.9996 31.9996-31.9996zm96.0001 0c17.6728 0 31.9996 14.3268 31.9996 31.9996s-14.3268 31.9996-31.9996 31.9996-31.9996-14.3268-31.9996-31.9996 14.3268-31.9996 31.9996-31.9996z" fill="#fffffe"/><path d="m255.999 255.999h1536v1536h-1536z" fill="none"/><path d="m416 1056h512c44.0339 0 84.0414 17.9917 113.024 46.976 28.9843 28.9831 46.976 68.993 46.976 113.024v416.002c0 35.2299-14.3917 67.2402-37.5756 90.4241s-55.1941 37.5756-90.4241 37.5756h-576.002c-35.2299 0-67.2402-14.3917-90.4241-37.5756s-37.5756-55.1918-37.5756-90.4241v-416.002c0-44.0327 17.9917-84.0414 46.9748-113.026 28.9843-28.9831 68.993-46.9748 113.026-46.9748zm0 192h512.001 32.0008v32.0008 320 32.0008h-32.0008-512.001-32.0008v-32.0008-320-32.0008zm64.0004-95.9989c17.6728 0 31.9996 14.3268 31.9996 31.9996s-14.3268 31.9996-31.9996 31.9996-31.9996-14.3268-31.9996-31.9996 14.3268-31.9996 31.9996-31.9996zm96.0001 0c17.6728 0 31.9996 14.3268 31.9996 31.9996s-14.3268 31.9996-31.9996 31.9996-31.9996-14.3268-31.9996-31.9996 14.3268-31.9996 31.9996-31.9996z" fill="#fffffe"/></svg>