<svg fill="none" height="32" viewBox="0 0 32 32" width="32" xmlns="http://www.w3.org/2000/svg"><g clip-rule="evenodd" fill-rule="evenodd"><path d="m16 16c0-2.2091 1.7909-4 4-4s4 1.7909 4 4-1.7909 4-4 4-4-1.7909-4-4z" fill="#1abcfe"/><path d="m8 24c0-2.2091 1.79086-4 4-4h4v4c0 2.2091-1.7909 4-4 4-2.20914 0-4-1.7909-4-4z" fill="#0acf83"/><path d="m16 4v8h4c2.2091 0 4-1.7909 4-4 0-2.20914-1.7909-4-4-4z" fill="#ff7262"/><path d="m8 8c0 2.2091 1.79086 4 4 4h4v-8h-4c-2.20914 0-4 1.79086-4 4z" fill="#f24e1e"/><path d="m8 16c0 2.2091 1.79086 4 4 4h4v-8h-4c-2.20914 0-4 1.7909-4 4z" fill="#a259ff"/></g></svg>