<svg height="24" viewBox="0 0 24 24" width="24" xmlns="http://www.w3.org/2000/svg"><g fill="none" fill-rule="evenodd"><path d="m0 0h24v24h-24z" fill-rule="nonzero"/><path d="m3 5c0-1.10457.89543-2 2-2h14c1.1046 0 2 .89543 2 2v14c0 1.1046-.8954 2-2 2h-14c-1.10457 0-2-.8954-2-2zm6.05037 10.5357c-.39052.3905-1.02369.3905-1.41421 0-.39053-.3906-.39053-1.0237 0-1.4143l2.12132-2.1213-2.12132-2.1213c-.39053-.39052-.39053-1.02369 0-1.41421.39052-.39053 1.02369-.39053 1.41421 0l2.82843 2.82841c.3905.3905.3905 1.0237 0 1.4142zm4.94973-1.5356c-.5523 0-1 .4477-1 1s.4477 1 1 1h2c.5523 0 1-.4477 1-1s-.4477-1-1-1z" fill="#09244b"/></g></svg>