<?xml version="1.0" standalone="no"?>
<!DOCTYPE svg PUBLIC "-//W3C//DTD SVG 20010904//EN"
 "http://www.w3.org/TR/2001/REC-SVG-20010904/DTD/svg10.dtd">
<svg version="1.0" xmlns="http://www.w3.org/2000/svg"
 width="939.000000pt" height="914.000000pt" viewBox="0 0 939.000000 914.000000"
 preserveAspectRatio="xMidYMid meet">

<g transform="translate(0.000000,914.000000) scale(0.100000,-0.100000)"
fill="#07271E" stroke="none">
<path d="M4485 8821 c-11 -4 -70 -11 -131 -14 -225 -13 -464 -49 -477 -72 -6
-11 -27 -15 -80 -15 -40 0 -97 -7 -127 -14 -180 -46 -413 -121 -598 -194 -196
-77 -659 -318 -693 -361 -10 -12 -22 -21 -27 -21 -6 0 -17 -6 -24 -12 -7 -7
-29 -21 -49 -30 -20 -9 -52 -30 -70 -45 -19 -16 -50 -39 -70 -51 -19 -12 -47
-32 -61 -44 -14 -13 -74 -61 -133 -108 -207 -162 -523 -493 -698 -730 -232
-314 -420 -654 -568 -1028 -27 -67 -49 -133 -49 -147 0 -13 -9 -39 -19 -57
-30 -51 -87 -256 -121 -433 -16 -88 -34 -173 -40 -190 -27 -85 -60 -479 -60
-715 0 -232 33 -625 60 -715 5 -16 20 -93 35 -170 26 -138 73 -322 102 -400 8
-22 25 -71 38 -110 48 -147 159 -415 216 -522 23 -43 54 -100 69 -128 352
-658 917 -1247 1567 -1633 264 -157 626 -321 893 -405 230 -73 293 -88 535
-132 50 -9 106 -20 125 -25 113 -29 517 -54 765 -47 195 6 435 27 525 47 25 5
117 23 205 40 237 45 263 52 490 126 338 111 811 341 1045 509 25 18 60 40 78
49 45 23 35 30 -14 10 -83 -34 -130 -55 -158 -71 -40 -22 -245 -94 -431 -152
-82 -25 -255 -66 -375 -87 -47 -9 -107 -20 -135 -25 -104 -19 -367 -37 -555
-38 -281 -2 -478 14 -675 54 -16 4 -86 18 -155 32 -294 59 -554 144 -800 260
-52 25 -115 54 -140 66 -151 70 -538 318 -655 419 -11 9 -49 40 -85 69 -100
81 -446 433 -531 539 -177 224 -352 495 -444 689 -20 40 -53 110 -75 155 -81
168 -172 436 -225 656 -20 85 -40 171 -45 190 -47 189 -64 398 -64 755 0 314
12 494 45 650 47 223 103 451 134 535 84 237 114 312 178 450 130 284 310 567
539 848 65 79 348 364 446 449 294 255 634 470 979 618 59 25 127 55 150 66
60 27 184 66 428 135 136 38 423 87 628 106 177 17 579 14 744 -5 162 -19 352
-48 463 -72 67 -14 118 -29 375 -107 87 -26 133 -44 308 -120 76 -32 143 -57
150 -55 7 3 4 8 -8 13 -11 4 -65 38 -120 74 -302 200 -787 426 -1090 509 -61
16 -130 36 -155 44 -148 48 -339 82 -625 112 -77 8 -165 17 -195 20 -93 10
-444 15 -465 6z"/>
<path d="M5210 7945 c-63 -8 -144 -21 -180 -29 -36 -8 -81 -18 -100 -21 -136
-26 -423 -104 -470 -129 -14 -7 -52 -23 -85 -34 -136 -46 -349 -148 -490 -234
-49 -30 -108 -64 -130 -76 -41 -20 -124 -82 -111 -82 4 0 44 18 89 39 45 22
138 59 207 82 69 23 148 50 176 60 242 82 780 144 1043 121 234 -21 388 -45
588 -91 120 -28 180 -46 393 -123 94 -34 348 -162 470 -236 220 -135 344 -235
576 -467 175 -175 275 -292 392 -462 23 -33 42 -65 42 -69 0 -4 9 -17 19 -28
29 -32 162 -294 229 -451 33 -77 79 -210 102 -295 23 -85 48 -177 56 -205 80
-297 93 -837 29 -1212 -15 -88 -70 -305 -111 -442 -32 -105 -138 -348 -222
-505 -89 -168 -223 -365 -338 -497 -27 -30 -71 -82 -99 -114 -191 -223 -529
-488 -820 -641 -297 -157 -510 -235 -831 -305 -24 -5 -65 -14 -91 -19 -258
-56 -726 -63 -1026 -15 -239 38 -507 117 -753 221 -111 47 -123 43 -34 -12 41
-26 82 -52 90 -59 31 -26 309 -170 410 -213 225 -94 256 -105 465 -164 39 -11
81 -24 95 -29 41 -14 219 -47 357 -66 184 -26 741 -26 928 0 147 20 257 41
330 62 331 96 400 119 575 193 87 36 290 140 382 195 82 48 195 122 228 149
19 15 73 56 120 90 89 65 101 75 237 198 72 67 184 183 278 291 85 97 262 349
347 494 220 372 378 829 433 1249 20 155 37 466 30 556 -3 41 -7 139 -10 218
-2 78 -7 147 -10 152 -3 6 -15 63 -26 127 -21 122 -84 380 -121 493 -39 120
-157 394 -222 516 -105 198 -229 388 -354 544 -61 76 -251 288 -286 319 -16
14 -59 54 -95 87 -392 364 -921 647 -1451 778 -371 92 -417 98 -815 101 -230
3 -352 0 -435 -10z"/>
<path d="M2780 6065 c0 -13 6 -44 14 -67 7 -24 32 -124 55 -223 23 -99 51
-216 62 -260 49 -195 59 -238 89 -370 18 -77 47 -198 66 -270 18 -71 54 -218
79 -325 25 -107 56 -240 70 -295 61 -249 148 -606 190 -780 25 -104 56 -233
70 -285 14 -52 29 -115 33 -140 l7 -45 190 195 c105 107 370 381 590 608 220
226 406 412 415 412 20 0 193 -176 1103 -1118 50 -51 92 -90 95 -88 2 3 8 22
12 43 5 21 27 112 49 203 69 278 168 687 202 835 17 77 37 158 44 180 7 22 25
94 40 160 15 66 40 174 57 240 16 66 49 206 74 310 24 105 54 226 65 270 12
44 34 136 51 205 16 69 45 188 64 265 46 184 84 348 84 357 0 5 -240 7 -532 6
l-533 -3 -37 -135 c-20 -74 -48 -189 -63 -255 -15 -66 -38 -165 -52 -220 -65
-262 -92 -375 -103 -428 -6 -32 -18 -61 -25 -63 -8 -3 -128 110 -302 287
l-289 292 -283 -294 c-156 -162 -289 -295 -296 -297 -14 -3 -36 62 -61 178
-17 84 -77 334 -102 430 -11 41 -39 154 -61 251 -23 96 -48 193 -56 215 l-13
39 -531 3 -531 2 0 -25z"/>
</g>
</svg>
