<svg width="184" height="187" viewBox="0 0 184 187" fill="none" xmlns="http://www.w3.org/2000/svg">
<circle cx="90" cy="90" r="86" stroke="black" stroke-width="8"/>
<path d="M140.061 77.2451C144.823 77.2451 148.905 78.0866 152.307 79.7695C155.708 81.4525 158.286 83.8337 160.041 86.9131C161.831 89.9925 162.727 93.5553 162.727 97.6016C162.727 101.648 161.831 105.193 160.041 108.236C158.286 111.244 155.708 113.59 152.307 115.272C148.905 116.92 144.823 117.743 140.061 117.743H127.438V133.695H140.329C141.547 133.695 142.406 133.982 142.907 134.555C143.444 135.092 143.713 136.023 143.713 137.348C143.713 138.673 143.444 139.621 142.907 140.194C142.406 140.731 141.547 141 140.329 141H110.681C109.463 141 108.586 140.731 108.049 140.194C107.548 139.621 107.297 138.673 107.297 137.348C107.297 136.023 107.548 135.092 108.049 134.555C108.586 133.982 109.463 133.695 110.681 133.695H119.382V84.5498H110.681C109.463 84.5498 108.586 84.2812 108.049 83.7441C107.548 83.1712 107.297 82.2223 107.297 80.8975C107.297 79.5726 107.548 78.6416 108.049 78.1045C108.586 77.5316 109.463 77.2451 110.681 77.2451H140.061ZM127.438 110.438H138.933C143.91 110.438 147.705 109.311 150.319 107.055C152.933 104.799 154.24 101.648 154.24 97.6016C154.24 93.4837 152.915 90.279 150.266 87.9873C147.652 85.6956 143.874 84.5498 138.933 84.5498H127.438V110.438Z" fill="black"/>
<path d="M120.44 77.44C121.667 77.44 122.547 77.7067 123.08 78.24C123.667 78.7733 123.96 79.4667 123.96 80.32C123.96 81.7067 123.533 82.9333 122.68 84C121.88 85.0667 120.6 85.6267 118.84 85.68C114.627 85.7333 110.84 85.4133 107.48 84.72C103.747 92.6667 99.24 99.28 93.96 104.56C88.7333 109.787 83.56 112.4 78.44 112.4C73.7467 112.4 70.2267 109.92 67.88 104.96C65.5333 99.9467 64.2 93.2533 63.88 84.88C60.68 94.16 57.0533 101.067 53 105.6C49 110.133 44.7333 112.4 40.2 112.4C35.08 112.4 31.2133 109.227 28.6 102.88C25.9867 96.48 24.68 87.8933 24.68 77.12C24.68 69.28 25.3733 60.6667 26.76 51.28C27.1333 48.6133 27.8 46.7733 28.76 45.76C29.7733 44.6933 31.3467 44.16 33.48 44.16C35.08 44.16 36.3067 44.5067 37.16 45.2C38.0667 45.8933 38.52 47.1733 38.52 49.04C38.52 49.4133 38.4667 50.1333 38.36 51.2C36.76 62.1333 35.96 71.44 35.96 79.12C35.96 86.2667 36.5733 91.7867 37.8 95.68C39.0267 99.5733 40.68 101.52 42.76 101.52C44.6267 101.52 46.8667 99.5733 49.48 95.68C52.1467 91.7333 54.7867 85.92 57.4 78.24C60.0133 70.5067 62.2267 61.3067 64.04 50.64C64.4667 48.1867 65.24 46.5067 66.36 45.6C67.5333 44.64 69.1067 44.16 71.08 44.16C72.7333 44.16 73.9333 44.5333 74.68 45.28C75.48 45.9733 75.88 47.04 75.88 48.48C75.88 49.3333 75.8267 50 75.72 50.48C74.2267 59.1733 73.48 67.8667 73.48 76.56C73.48 82.48 73.6667 87.2 74.04 90.72C74.4667 94.24 75.24 96.9333 76.36 98.8C77.5333 100.613 79.2133 101.52 81.4 101.52C83.96 101.52 86.8133 99.6 89.96 95.76C93.1067 91.8667 95.9867 87.04 98.6 81.28C95.3467 79.2533 92.8933 76.64 91.24 73.44C89.5867 70.1867 88.76 66.4533 88.76 62.24C88.76 58.0267 89.4 54.48 90.68 51.6C92.0133 48.6667 93.8 46.48 96.04 45.04C98.3333 43.6 100.867 42.88 103.64 42.88C107.053 42.88 109.747 44.1067 111.72 46.56C113.747 49.0133 114.76 52.3733 114.76 56.64C114.76 62.6667 113.453 69.36 110.84 76.72C113.56 77.2 116.76 77.44 120.44 77.44ZM96.84 61.68C96.84 66.9067 98.52 70.7733 101.88 73.28C103.96 67.3067 105 62.3733 105 58.48C105 56.24 104.707 54.6133 104.12 53.6C103.533 52.5333 102.733 52 101.72 52C100.28 52 99.1067 52.8533 98.2 54.56C97.2933 56.2133 96.84 58.5867 96.84 61.68Z" fill="black"/>
</svg>
