<svg width="185" height="187" viewBox="0 0 185 187" fill="none" xmlns="http://www.w3.org/2000/svg">
<circle cx="90" cy="90" r="88.5" stroke="#0980A7" stroke-width="3"/>
<circle cx="90.5" cy="89.5" r="82.5" fill="#0980A7"/>
<path d="M141.061 77.2451C145.823 77.2451 149.905 78.0866 153.307 79.7695C156.708 81.4525 159.286 83.8337 161.041 86.9131C162.831 89.9925 163.727 93.5553 163.727 97.6016C163.727 101.648 162.831 105.193 161.041 108.236C159.286 111.244 156.708 113.59 153.307 115.272C149.905 116.92 145.823 117.743 141.061 117.743H128.438V133.695H141.329C142.547 133.695 143.406 133.982 143.907 134.555C144.444 135.092 144.713 136.023 144.713 137.348C144.713 138.673 144.444 139.621 143.907 140.194C143.406 140.731 142.547 141 141.329 141H111.681C110.463 141 109.586 140.731 109.049 140.194C108.548 139.621 108.297 138.673 108.297 137.348C108.297 136.023 108.548 135.092 109.049 134.555C109.586 133.982 110.463 133.695 111.681 133.695H120.382V84.5498H111.681C110.463 84.5498 109.586 84.2812 109.049 83.7441C108.548 83.1712 108.297 82.2223 108.297 80.8975C108.297 79.5726 108.548 78.6416 109.049 78.1045C109.586 77.5316 110.463 77.2451 111.681 77.2451H141.061ZM128.438 110.438H139.933C144.91 110.438 148.705 109.311 151.319 107.055C153.933 104.799 155.24 101.648 155.24 97.6016C155.24 93.4837 153.915 90.279 151.266 87.9873C148.652 85.6956 144.874 84.5498 139.933 84.5498H128.438V110.438Z" fill="white"/>
<path d="M121.44 77.44C122.667 77.44 123.547 77.7067 124.08 78.24C124.667 78.7733 124.96 79.4667 124.96 80.32C124.96 81.7067 124.533 82.9333 123.68 84C122.88 85.0667 121.6 85.6267 119.84 85.68C115.627 85.7333 111.84 85.4133 108.48 84.72C104.747 92.6667 100.24 99.28 94.96 104.56C89.7333 109.787 84.56 112.4 79.44 112.4C74.7467 112.4 71.2267 109.92 68.88 104.96C66.5333 99.9467 65.2 93.2533 64.88 84.88C61.68 94.16 58.0533 101.067 54 105.6C50 110.133 45.7333 112.4 41.2 112.4C36.08 112.4 32.2133 109.227 29.6 102.88C26.9867 96.48 25.68 87.8933 25.68 77.12C25.68 69.28 26.3733 60.6667 27.76 51.28C28.1333 48.6133 28.8 46.7733 29.76 45.76C30.7733 44.6933 32.3467 44.16 34.48 44.16C36.08 44.16 37.3067 44.5067 38.16 45.2C39.0667 45.8933 39.52 47.1733 39.52 49.04C39.52 49.4133 39.4667 50.1333 39.36 51.2C37.76 62.1333 36.96 71.44 36.96 79.12C36.96 86.2667 37.5733 91.7867 38.8 95.68C40.0267 99.5733 41.68 101.52 43.76 101.52C45.6267 101.52 47.8667 99.5733 50.48 95.68C53.1467 91.7333 55.7867 85.92 58.4 78.24C61.0133 70.5067 63.2267 61.3067 65.04 50.64C65.4667 48.1867 66.24 46.5067 67.36 45.6C68.5333 44.64 70.1067 44.16 72.08 44.16C73.7333 44.16 74.9333 44.5333 75.68 45.28C76.48 45.9733 76.88 47.04 76.88 48.48C76.88 49.3333 76.8267 50 76.72 50.48C75.2267 59.1733 74.48 67.8667 74.48 76.56C74.48 82.48 74.6667 87.2 75.04 90.72C75.4667 94.24 76.24 96.9333 77.36 98.8C78.5333 100.613 80.2133 101.52 82.4 101.52C84.96 101.52 87.8133 99.6 90.96 95.76C94.1067 91.8667 96.9867 87.04 99.6 81.28C96.3467 79.2533 93.8933 76.64 92.24 73.44C90.5867 70.1867 89.76 66.4533 89.76 62.24C89.76 58.0267 90.4 54.48 91.68 51.6C93.0133 48.6667 94.8 46.48 97.04 45.04C99.3333 43.6 101.867 42.88 104.64 42.88C108.053 42.88 110.747 44.1067 112.72 46.56C114.747 49.0133 115.76 52.3733 115.76 56.64C115.76 62.6667 114.453 69.36 111.84 76.72C114.56 77.2 117.76 77.44 121.44 77.44ZM97.84 61.68C97.84 66.9067 99.52 70.7733 102.88 73.28C104.96 67.3067 106 62.3733 106 58.48C106 56.24 105.707 54.6133 105.12 53.6C104.533 52.5333 103.733 52 102.72 52C101.28 52 100.107 52.8533 99.2 54.56C98.2933 56.2133 97.84 58.5867 97.84 61.68Z" fill="white"/>
</svg>
